<svg id="effect" height="512" viewBox="0 0 36 36" width="512" xmlns="http://www.w3.org/2000/svg"><path d="m34.904 20.355c-3.782-5.791-3.38-11.727-5.203-14.518s-7.256-7.603-20.093.782-9.572 17.5-7.566 20.569c9.388 14.372 39.561 3.423 32.862-6.833z" fill="#efefef"/><path d="m27.5 12.03c0 6.171-5.158 11.495-10.46 14.45-.01.01-.02.01-.02.01-.01.01-.02.01-.02.01s-.01 0-.03-.02h-.01c-4.321-2.408-10.46-7.674-10.46-14.45 0-3.05 2.48-5.53 5.53-5.53 2.18 0 4.07 1.15 4.97 3 .9-1.85 2.79-3 4.97-3 3.05 0 5.53 2.48 5.53 5.53z" fill="#f3f3f1"/><path d="m24 29.5s5.5-2.321 5.5-6.964c0-1.857 0-4.179 0-4.179l-5.5-1.857-5.5 1.857v4.179c0 4.643 5.5 6.964 5.5 6.964z" fill="#2fdf84"/><path d="m18 25.92c-.32.19-.64.38-.96.56-.01.01-.02.01-.02.01-.01.01-.02.01-.02.01s-.01 0-.03-.02h-.01c-4.32-2.41-10.46-7.67-10.46-14.45 0-3.05 2.48-5.53 5.53-5.53.35 0 .69.03 1.02.09-2.58.46-4.55 2.72-4.55 5.44 0 6.29 5.29 11.28 9.5 13.89z" fill="#d5dbe1"/><path d="m25 28.98c-.59.35-1 .52-1 .52s-5.5-2.32-5.5-6.96c0-2.79 0-4.18 0-4.18l5.5-1.86 1 .34-4.5 1.52v4.18c0 3.38 2.92 5.53 4.5 6.44z" fill="#00b871"/><path d="m15.85 26.7c-2.369-1.445-10.1-6.774-10.1-14.67 0-3.463 2.817-6.28 6.28-6.28 2.005 0 3.814.874 4.97 2.344 1.156-1.47 2.965-2.344 4.97-2.344 3.463 0 6.28 2.817 6.28 6.28 0 .846-.089 1.706-.266 2.553l-1.469-.306c.156-.748.234-1.503.234-2.248 0-2.636-2.144-4.78-4.78-4.78-1.876 0-3.522.988-4.296 2.578-.251.516-1.098.516-1.349 0-.773-1.59-2.419-2.578-4.296-2.578-2.636 0-4.78 2.144-4.78 4.78 0 7.115 7.18 12.047 9.381 13.39z"/><path d="m24 30.25c-.099 0-.198-.02-.292-.059-.244-.103-5.958-2.573-5.958-7.655v-4.179c0-.322.205-.607.51-.71l5.5-1.857c.155-.053.324-.053.479 0l5.5 1.857c.305.103.51.389.51.71v4.179c0 5.082-5.715 7.553-5.958 7.655-.093.039-.192.059-.291.059zm-4.75-11.354v3.64c0 3.516 3.673 5.601 4.749 6.136 1.075-.538 4.751-2.633 4.751-6.136v-3.64l-4.75-1.604z"/><path d="m23.5 25.25c-.014 0-.028 0-.042-.001-.213-.012-.411-.114-.544-.28l-2-2.5 1.171-.938 1.477 1.846 2.908-2.907 1.061 1.061-3.5 3.5c-.142.14-.333.219-.531.219z"/><path d="m31 6.425c-.827 0-1.5-.673-1.5-1.5s.673-1.5 1.5-1.5 1.5.673 1.5 1.5-.673 1.5-1.5 1.5zm0-2c-.276 0-.5.224-.5.5s.224.5.5.5.5-.224.5-.5-.224-.5-.5-.5z" fill="#a4afc1"/></svg>